<?xml version="1.0" encoding="UTF-8"?>
<svg id="Calque_2" data-name="Calque 2" xmlns="http://www.w3.org/2000/svg" viewBox="0 0 1229.93 202.61">
  <g id="Layer_1" data-name="Layer 1">
    <g>
      <path d="M124.89,190.2c-.23-.42-.53-.72-.9-.95-.39-.23-.81-.33-1.27-.33-.48,0-.9.11-1.28.32-.38.21-.68.53-.89.93-.23.41-.33.89-.33,1.45s.11,1.02.33,1.45c.21.41.51.72.89.93.38.23.8.33,1.28.33.45,0,.87-.11,1.27-.33.38-.23.68-.54.9-.95.21-.41.33-.89.33-1.43s-.12-1.01-.33-1.42ZM124.89,190.2c-.23-.42-.53-.72-.9-.95-.39-.23-.81-.33-1.27-.33-.48,0-.9.11-1.28.32-.38.21-.68.53-.89.93-.23.41-.33.89-.33,1.45s.11,1.02.33,1.45c.21.41.51.72.89.93.38.23.8.33,1.28.33.45,0,.87-.11,1.27-.33.38-.23.68-.54.9-.95.21-.41.33-.89.33-1.43s-.12-1.01-.33-1.42ZM124.89,190.2c-.23-.42-.53-.72-.9-.95-.39-.23-.81-.33-1.27-.33-.48,0-.9.11-1.28.32-.38.21-.68.53-.89.93-.23.41-.33.89-.33,1.45s.11,1.02.33,1.45c.21.41.51.72.89.93.38.23.8.33,1.28.33.45,0,.87-.11,1.27-.33.38-.23.68-.54.9-.95.21-.41.33-.89.33-1.43s-.12-1.01-.33-1.42ZM144.59,189.97c-.21-.35-.5-.62-.86-.8-.36-.18-.75-.27-1.18-.27-.65,0-1.19.21-1.64.62-.45.41-.69.98-.75,1.73h4.73c0-.5-.09-.93-.3-1.28ZM144.59,189.97c-.21-.35-.5-.62-.86-.8-.36-.18-.75-.27-1.18-.27-.65,0-1.19.21-1.64.62-.45.41-.69.98-.75,1.73h4.73c0-.5-.09-.93-.3-1.28ZM124.89,190.2c-.23-.42-.53-.72-.9-.95-.39-.23-.81-.33-1.27-.33-.48,0-.9.11-1.28.32-.38.21-.68.53-.89.93-.23.41-.33.89-.33,1.45s.11,1.02.33,1.45c.21.41.51.72.89.93.38.23.8.33,1.28.33.45,0,.87-.11,1.27-.33.38-.23.68-.54.9-.95.21-.41.33-.89.33-1.43s-.12-1.01-.33-1.42ZM124.89,190.2c-.23-.42-.53-.72-.9-.95-.39-.23-.81-.33-1.27-.33-.48,0-.9.11-1.28.32-.38.21-.68.53-.89.93-.23.41-.33.89-.33,1.45s.11,1.02.33,1.45c.21.41.51.72.89.93.38.23.8.33,1.28.33.45,0,.87-.11,1.27-.33.38-.23.68-.54.9-.95.21-.41.33-.89.33-1.43s-.12-1.01-.33-1.42ZM144.59,189.97c-.21-.35-.5-.62-.86-.8-.36-.18-.75-.27-1.18-.27-.65,0-1.19.21-1.64.62-.45.41-.69.98-.75,1.73h4.73c0-.5-.09-.93-.3-1.28ZM175.18,189.97c-.21-.35-.5-.62-.86-.8-.36-.18-.75-.27-1.17-.27-.65,0-1.19.21-1.64.62-.45.41-.69.98-.75,1.73h4.73c.02-.5-.09-.93-.3-1.28ZM175.18,189.97c-.21-.35-.5-.62-.86-.8-.36-.18-.75-.27-1.17-.27-.65,0-1.19.21-1.64.62-.45.41-.69.98-.75,1.73h4.73c.02-.5-.09-.93-.3-1.28ZM144.59,189.97c-.21-.35-.5-.62-.86-.8-.36-.18-.75-.27-1.18-.27-.65,0-1.19.21-1.64.62-.45.41-.69.98-.75,1.73h4.73c0-.5-.09-.93-.3-1.28ZM124.89,190.2c-.23-.42-.53-.72-.9-.95-.39-.23-.81-.33-1.27-.33-.48,0-.9.11-1.28.32-.38.21-.68.53-.89.93-.23.41-.33.89-.33,1.45s.11,1.02.33,1.45c.21.41.51.72.89.93.38.23.8.33,1.28.33.45,0,.87-.11,1.27-.33.38-.23.68-.54.9-.95.21-.41.33-.89.33-1.43s-.12-1.01-.33-1.42ZM0,0v191.19c9.07-6.27,19.88-10.12,30.47-13.56,22.98-7.44,46.35-13.69,69.96-18.75,18.15-3.9,42.38-2.29,54.98-17.88,6.81-8.42,10.06-18.71,9.76-30.83-.15-11.1-3.48-20.56-9.99-28.41-6.81-8.28-14.56-12.43-23.3-12.43-7.98,0-14.87,3.63-20.63,10.87-4.44,5.47-8.87,14.13-13.31,25.97-.89,2.06-1.99,5.09-3.33,9.1-1.63,4.29-2.85,7.53-3.66,9.76-.81,2.21-2.06,5.18-3.77,8.87-1.7,3.71-3.25,6.51-4.67,8.43-1.4,1.93-3.21,4.1-5.44,6.54-2.21,2.46-4.55,4.22-6.99,5.33-2.44,1.11-5.32,2-8.65,2.67-3.33.66-6.99.77-10.98.33-10.95-1.19-20.05-6.88-27.29-17.08-6.96-9.78-10.36-21.67-10.21-35.73v-.23c.15-11.24,2.88-21.6,8.21-31.07,5.18-9.16,11.69-15,19.52-17.52.45-.15.89-.3,1.34-.45,3.4-.59,6.51-.51,9.31.23,3.55,1.19,5.71,3.1,6.45,5.77l.21.44v2c-.14,1.34-.74,2.52-1.76,3.55-1.04,1.04-2.44,1.78-4.22,2.21-1.34.3-2.74.38-4.22.23h-.23c-9.46-.59-16.78,1.99-21.96,7.76-5.33,5.77-8.36,14.81-9.1,27.08.44,9.91,3.69,18.41,9.76,25.51,6.07,7.09,13.16,10.87,21.3,11.31,3.71.15,7.06-.41,10.09-1.66,3.04-1.27,5.51-2.7,7.44-4.34,1.93-1.63,3.84-4.17,5.77-7.65,1.93-3.46,3.36-6.4,4.32-8.77.96-2.36,2.33-5.99,4.11-10.87l2.21-6.21c1.78-4.73,3.15-8.31,4.11-10.77.96-2.44,2.39-5.8,4.32-10.09,1.93-4.29,3.66-7.55,5.21-9.76,1.55-2.21,3.55-4.8,5.99-7.77,2.44-2.95,4.96-5.17,7.55-6.66,2.59-1.48,5.65-2.7,9.2-3.66,3.55-.95,7.32-1.36,11.31-1.22,5.48.3,10.77,1.93,15.88,4.88,5.09,2.97,9.5,7.26,13.19,12.88,7.11,10.5,10.57,24.04,10.44,40.61.29,13.01-3.25,24.04-10.65,33.06-11.12,13.9-24.2,21.88-41.75,25.17-20.85,3.9-42.25,4.04-63.03,8.22-18.83,3.8-37.85,11.61-50.31,25.98h186.31V0H0ZM159.78,36.51c-3.86,0-6.99-3.13-6.99-7s3.13-6.99,6.99-6.99,7,3.13,7,6.99-3.13,7-7,7ZM115.63,194.85c-.12.12-.26.18-.44.18s-.33-.06-.45-.18c-.11-.12-.17-.27-.17-.45s.06-.33.17-.45c.12-.12.27-.18.45-.18s.32.06.44.18c.12.12.18.27.18.45s-.06.33-.18.45ZM126.08,194.97h-.86v-1.49c-.23.47-.56.84-1.02,1.14-.45.3-1.01.45-1.66.45-.6,0-1.14-.15-1.64-.44-.48-.29-.86-.69-1.13-1.22-.29-.51-.42-1.13-.42-1.81s.14-1.3.42-1.82c.27-.51.65-.92,1.13-1.2.5-.29,1.04-.42,1.66-.42s1.19.15,1.66.44c.47.3.8.68,1.01,1.14v-1.48h.86v6.7ZM133.37,194.97h-.98l-2.68-6.7h.92l2.26,5.87,2.26-5.87h.92l-2.7,6.7ZM145.74,191.95h-5.57c.03.51.15.95.38,1.31s.51.63.87.81c.36.2.75.29,1.17.29.56,0,1.02-.14,1.42-.41.38-.27.63-.63.75-1.1h.9c-.17.66-.51,1.19-1.05,1.61-.53.41-1.21.62-2.02.62-.63,0-1.19-.15-1.7-.42-.5-.29-.89-.69-1.16-1.2-.29-.53-.44-1.13-.44-1.84s.15-1.3.42-1.82c.29-.53.66-.93,1.17-1.2.5-.29,1.07-.42,1.7-.42s1.21.14,1.69.42c.47.27.84.65,1.1,1.11.26.48.39,1.01.39,1.58,0,.29-.02.51-.03.66ZM155.68,194.97h-.86v-3.83c0-.74-.18-1.3-.54-1.67-.36-.39-.86-.59-1.49-.59s-1.16.21-1.55.62c-.39.41-.57,1.01-.57,1.81v3.66h-.86v-6.7h.86v1.13c.21-.41.51-.72.92-.93s.86-.33,1.37-.33c.8,0,1.45.26,1.96.75.51.5.77,1.21.77,2.15v3.93ZM165.86,194.97h-.86v-1.17c-.2.42-.51.74-.92.96-.41.21-.86.33-1.37.33-.81,0-1.46-.26-1.97-.75-.51-.5-.75-1.21-.75-2.15v-3.92h.84v3.81c0,.74.18,1.3.54,1.67.36.39.86.59,1.49.59s1.17-.21,1.55-.62c.39-.41.59-1.01.59-1.81v-3.64h.86v6.7ZM176.33,191.95h-5.57c.03.51.15.95.38,1.31.23.36.51.63.87.81.36.2.75.29,1.17.29.56,0,1.02-.14,1.42-.41.38-.27.63-.63.75-1.1h.9c-.15.66-.51,1.19-1.04,1.61-.54.41-1.22.62-2.03.62-.63,0-1.19-.15-1.69-.42-.51-.29-.9-.69-1.17-1.2-.29-.53-.42-1.13-.42-1.84s.14-1.3.41-1.82c.29-.53.68-.93,1.17-1.2.5-.29,1.07-.42,1.7-.42s1.21.14,1.69.42c.48.27.84.65,1.1,1.11.26.48.39,1.01.39,1.58,0,.29-.02.51-.03.66ZM174.32,189.18c-.36-.18-.75-.27-1.17-.27-.65,0-1.19.21-1.64.62-.45.41-.69.98-.75,1.73h4.73c.02-.5-.09-.93-.3-1.28-.21-.35-.5-.62-.86-.8ZM143.73,189.18c-.36-.18-.75-.27-1.18-.27-.65,0-1.19.21-1.64.62-.45.41-.69.98-.75,1.73h4.73c0-.5-.09-.93-.3-1.28-.21-.35-.5-.62-.86-.8ZM123.99,189.25c-.39-.23-.81-.33-1.27-.33-.48,0-.9.11-1.28.32-.38.21-.68.53-.89.93-.23.41-.33.89-.33,1.45s.11,1.02.33,1.45c.21.41.51.72.89.93.38.23.8.33,1.28.33.45,0,.87-.11,1.27-.33.38-.23.68-.54.9-.95.21-.41.33-.89.33-1.43s-.12-1.01-.33-1.42c-.23-.42-.53-.72-.9-.95ZM124.89,190.2c-.23-.42-.53-.72-.9-.95-.39-.23-.81-.33-1.27-.33-.48,0-.9.11-1.28.32-.38.21-.68.53-.89.93-.23.41-.33.89-.33,1.45s.11,1.02.33,1.45c.21.41.51.72.89.93.38.23.8.33,1.28.33.45,0,.87-.11,1.27-.33.38-.23.68-.54.9-.95.21-.41.33-.89.33-1.43s-.12-1.01-.33-1.42ZM144.59,189.97c-.21-.35-.5-.62-.86-.8-.36-.18-.75-.27-1.18-.27-.65,0-1.19.21-1.64.62-.45.41-.69.98-.75,1.73h4.73c0-.5-.09-.93-.3-1.28ZM144.59,189.97c-.21-.35-.5-.62-.86-.8-.36-.18-.75-.27-1.18-.27-.65,0-1.19.21-1.64.62-.45.41-.69.98-.75,1.73h4.73c0-.5-.09-.93-.3-1.28ZM124.89,190.2c-.23-.42-.53-.72-.9-.95-.39-.23-.81-.33-1.27-.33-.48,0-.9.11-1.28.32-.38.21-.68.53-.89.93-.23.41-.33.89-.33,1.45s.11,1.02.33,1.45c.21.41.51.72.89.93.38.23.8.33,1.28.33.45,0,.87-.11,1.27-.33.38-.23.68-.54.9-.95.21-.41.33-.89.33-1.43s-.12-1.01-.33-1.42ZM124.89,190.2c-.23-.42-.53-.72-.9-.95-.39-.23-.81-.33-1.27-.33-.48,0-.9.11-1.28.32-.38.21-.68.53-.89.93-.23.41-.33.89-.33,1.45s.11,1.02.33,1.45c.21.41.51.72.89.93.38.23.8.33,1.28.33.45,0,.87-.11,1.27-.33.38-.23.68-.54.9-.95.21-.41.33-.89.33-1.43s-.12-1.01-.33-1.42ZM144.59,189.97c-.21-.35-.5-.62-.86-.8-.36-.18-.75-.27-1.18-.27-.65,0-1.19.21-1.64.62-.45.41-.69.98-.75,1.73h4.73c0-.5-.09-.93-.3-1.28ZM144.59,189.97c-.21-.35-.5-.62-.86-.8-.36-.18-.75-.27-1.18-.27-.65,0-1.19.21-1.64.62-.45.41-.69.98-.75,1.73h4.73c0-.5-.09-.93-.3-1.28ZM124.89,190.2c-.23-.42-.53-.72-.9-.95-.39-.23-.81-.33-1.27-.33-.48,0-.9.11-1.28.32-.38.21-.68.53-.89.93-.23.41-.33.89-.33,1.45s.11,1.02.33,1.45c.21.41.51.72.89.93.38.23.8.33,1.28.33.45,0,.87-.11,1.27-.33.38-.23.68-.54.9-.95.21-.41.33-.89.33-1.43s-.12-1.01-.33-1.42ZM124.89,190.2c-.23-.42-.53-.72-.9-.95-.39-.23-.81-.33-1.27-.33-.48,0-.9.11-1.28.32-.38.21-.68.53-.89.93-.23.41-.33.89-.33,1.45s.11,1.02.33,1.45c.21.41.51.72.89.93.38.23.8.33,1.28.33.45,0,.87-.11,1.27-.33.38-.23.68-.54.9-.95.21-.41.33-.89.33-1.43s-.12-1.01-.33-1.42ZM124.89,190.2c-.23-.42-.53-.72-.9-.95-.39-.23-.81-.33-1.27-.33-.48,0-.9.11-1.28.32-.38.21-.68.53-.89.93-.23.41-.33.89-.33,1.45s.11,1.02.33,1.45c.21.41.51.72.89.93.38.23.8.33,1.28.33.45,0,.87-.11,1.27-.33.38-.23.68-.54.9-.95.21-.41.33-.89.33-1.43s-.12-1.01-.33-1.42Z"/>
      <g>
        <path d="M354.11,125.02c-.8-2.94-1.82-5.5-3.05-7.67s-3.09-4.25-5.54-6.28c-2.47-2.03-4.63-3.71-6.48-5-1.85-1.29-4.56-2.74-8.14-4.34-3.58-1.62-6.38-2.82-8.41-3.61s-5.03-1.94-8.97-3.41l-5.18-1.85c-4.07-1.49-7.08-2.62-9.06-3.43-1.98-.8-4.41-2-7.3-3.6-2.91-1.6-5.03-3.22-6.38-4.81-1.36-1.6-2.56-3.67-3.61-6.19s-1.51-5.34-1.38-8.41c.36-6.79,3.51-12.7,9.43-17.76,5.92-5.05,13.01-7.77,21.27-8.14,10.23.62,17.76,3.14,22.56,7.59,4.81,4.3,6.97,10.41,6.48,18.31v.18c-.13,1.24-.07,2.4.18,3.51.36,1.49.98,2.65,1.85,3.52.85.85,1.83,1.36,2.96,1.47h1.65l.38-.18c2.22-.62,3.81-2.4,4.8-5.36.62-2.34.67-4.94.18-7.77-.11-.36-.24-.74-.36-1.11-2.09-6.54-6.96-11.95-14.6-16.27-7.9-4.43-16.53-6.72-25.9-6.85h-.18c-11.72-.11-21.63,2.72-29.77,8.52-8.52,6.03-13.26,13.62-14.24,22.74-.38,3.32-.29,6.38.27,9.15.54,2.78,1.29,5.18,2.22,7.21.93,2.03,2.4,3.98,4.43,5.83,2.03,1.85,3.87,3.36,5.47,4.52,1.6,1.18,3.94,2.47,7.03,3.89,3.07,1.42,5.54,2.47,7.39,3.14,1.85.69,4.56,1.71,8.14,3.05,3.32,1.11,5.85,2.03,7.59,2.78,9.86,3.71,17.07,7.39,21.63,11.1,6.03,4.81,9.06,10.54,9.06,17.2,0,7.28-3.45,13.75-10.35,19.42-6.54,5.43-14.44,8.21-23.69,8.32-10.1.25-18.67-2.45-25.7-8.14-4.07-3.32-7.1-7.39-9.06-12.21-.13-.24-.18-.42-.18-.54-1-2.6-1.67-5.56-2.03-8.88v-.18h-.18v-.38h-.2v-.18h-.18v-.18h-.18v-.18h-.36v-.18h-.74l-.18.18h-.38v.18h-.18v.18h-.18v.18l-.18.2v.73c.13,2.72,0,5.18-.36,7.41-.38,2.34-1,4.38-1.85,6.1-.25.62-.18,1.16.18,1.65.49.74,1.16.82,2.03.2,1.11-.87,2.14-1.18,3.14-.93.85.11,1.73.8,2.58,2.03l.38.36c1.73,2.47,3.81,4.69,6.28,6.67,7.52,6.16,16.71,9.12,27.55,8.86,13.8.13,25.1-2.76,33.86-8.68,4.69-3.09,8.25-6.76,10.72-11.01,2.47-4.25,3.83-8.66,4.07-13.22.13-3.32-.22-6.48-1.02-9.45Z"/>
        <path d="M401.19,163.87h-1.31c-3.69-.25-6.54-1.73-8.5-4.45-2.6-3.56-3.89-9.43-3.89-17.56v-63.25h10.54c1.13,0,1.67-.49,1.67-1.49s-.55-1.47-1.67-1.47h-10.54v-24.79c0-1.11-.49-1.65-1.47-1.65-.74,0-1.24.36-1.49,1.11-2.22,6.9-5.3,12.46-9.25,16.64-3.81,4.2-8.39,7.1-13.68,8.7-1,.25-1.36.85-1.13,1.85.25.73.74,1.11,1.49,1.11h11.64v62.14l.2.36v1.85l.18.38v.91l.18.2v.73l.18.2v.73l.18.18v.56c.13.25.18.44.18.56l.2.36v.36l.18.2v.36l.18.36v.38l.18.18.18.36v.38l.2.18.18.36v.36l.18.2.18.36v.18l.18.38.18.18.2.36.18.18v.38l.18.18v.18l.18.18.18.18.2.38.18.18v.18h.18v.18l.18.18v.2l.18.18.2.18.18.18v.18h.18v.2l.18.36.18.18h.18v.18h.2v.18l.18.2.18.18.18.18v.18h.18v.18h.2v.2h.18v.18h.18l.18.36h.18l.18.18v.18l.2.2.36.18.18.18.18.18h.2l.18.18c.36.38.74.69,1.11.93l.18.18.18.2.38.18.18.18h.18l.36.36h.18l.2.2.36.18.18.18h.18l.2.18.18.18h.36v.18h.18l.18.2h.38v.18c.24,0,.44.05.54.18l.38.18c3.32,1.49,6.9,2.34,10.72,2.6h1.31c.98,0,1.51-.49,1.56-1.49.05-.98-.45-1.47-1.56-1.47Z"/>
        <path d="M490.52,163.87h-3.52v-86.75c0-.49-.13-.85-.36-1.11-.74-.74-1.49-.74-2.22,0-1.85,2.11-4.2,4.01-7.03,5.74-1.98,1.24-5.18,2.89-9.63,5-.24.13-.49.36-.73.74-.25.98.05,1.65.91,2.03,2.23.73,3.65,1.83,4.27,3.32.62,1.47.93,4.25.93,8.32v32.91c-.13,7.16-2.11,13.26-5.92,18.33-3.96,5.29-9.32,8.68-16.09,10.17h-2.6c-6.16,0-10.97-1.98-14.42-5.92-3.71-4.07-5.85-10.43-6.47-19.05-.25-1.98-.38-4.12-.38-6.47v-53.84c0-.49-.13-.85-.36-1.11-.74-.73-1.47-.73-2.22,0-1.85,2.11-4.2,4.01-7.03,5.74-1.98,1.11-5.12,2.78-9.43,5-.38.13-.64.36-.74.74-.38.98-.13,1.65.74,2.03,2.22.73,3.63,1.85,4.25,3.32.62,1.47.93,4.25.93,8.32v27.94c0,3.45.29,6.78.93,9.99,1.83,8.63,5.79,15.35,11.82,20.14l.18.2.38.36.18.18.36.18.2.2.36.18.18.18.36.18.2.18.36.18.18.2.38.18h.18l.36.18.18.18.38.18.18.2.36.18.38.18h.18l.36.18.18.18.38.18h.18l.36.2.38.18h.18l.36.18h.36l.2.18.36.18h.18l.38.2h.36l.18.18h.36l.38.18h.18l.36.18h.38l.18.18h.74l.18.18h.75l.18.2h1.11l.18.18h1.29l.38.18h5.18l.18-.18h1.47v-.18h1.11l.2-.2h.93c7.39-1.6,13.31-5.36,17.75-11.28,1.36-1.83,2.52-3.81,3.52-5.9v17c0,1,.49,1.49,1.47,1.49h15.91c.98,0,1.47-.49,1.47-1.49s-.49-1.47-1.47-1.47Z"/>
        <path d="M579.47,164.05h-3.32V39.76c0-.36-.18-.73-.55-1.11-.74-.62-1.42-.55-2.03.2-1.98,1.96-4.38,3.87-7.21,5.72-1.85,1.11-5,2.72-9.45,4.81-.36.25-.62.56-.74.93-.36.85-.05,1.47.93,1.85,2.11.85,3.49,2.03,4.18,3.51.67,1.49,1,4.2,1,8.14v21.83c-1.47-1.98-3.38-3.76-5.72-5.38-4.69-2.96-10.24-4.43-16.66-4.43-5.54,0-10.79,1.24-15.71,3.71-8.75,4.43-15.17,12.21-19.24,23.3-.13.24-.25.49-.36.73-.13.38-.2.62-.2.74-.11.36-.24.62-.36.74v.54l-.18.56-.18.36-.2.56v.36l-.18.18v.38l-.18.54v.38l-.18.18-.18.74v.18l-.18.54v.38l-.2.54v.74l-.18.18v.93l-.18.36v.93l-.18.2v.91l-.18.38v1.47l-.2.74v1.67l-.18.73v6.48l.18.18c.38,7.65,2.16,14.55,5.38,20.71,6.78,12.33,17.38,18.62,31.81,18.87,7.65,0,14.06-2.52,19.24-7.59,1.85-1.6,3.32-3.51,4.43-5.72v11.82c0,1,.51,1.49,1.49,1.49h15.71c1.13,0,1.67-.49,1.67-1.49-.13-.98-.67-1.47-1.67-1.47ZM562.27,141.11c0,6.67-2.14,12.1-6.47,16.27-4.56,4.32-10.3,6.54-17.2,6.67h-.18c-4.81,0-8.92-1.78-12.3-5.36-3.4-3.58-5.96-8.39-7.68-14.44-1.6-5.54-2.47-11.77-2.58-18.67-.13-6.78.49-13.31,1.85-19.6.73-3.22,1.62-6.23,2.67-9.06s2.43-5.7,4.16-8.61c1.73-2.89,3.92-5.19,6.58-6.94,2.65-1.73,5.58-2.58,8.77-2.58,5.79,0,10.86,1.36,15.17,4.07,4.56,2.96,6.97,6.9,7.21,11.84v46.41Z"/>
        <path d="M609.26,41.61c-1.85-2.22-4.14-3.32-6.85-3.32s-5,1.11-6.85,3.32c-1.73,2.22-2.58,4.81-2.58,7.77s.85,5.54,2.58,7.77c1.85,2.22,4.14,3.32,6.85,3.32s5-1.11,6.85-3.32c1.85-2.23,2.78-4.81,2.78-7.77s-.93-5.56-2.78-7.77ZM613.51,164.05h-3.51v-86.75c0-.49-.13-.85-.38-1.11-.74-.73-1.47-.73-2.22,0-1.85,2.11-4.2,4.01-7.03,5.74-1.98,1.11-5.12,2.78-9.43,5-.38.13-.62.36-.74.74-.36.98-.13,1.65.74,2.03,2.22.73,3.63,1.85,4.25,3.32.62,1.47.93,4.25.93,8.32v62.7h-3.32c-1,0-1.49.49-1.49,1.47s.49,1.49,1.49,1.49h20.71c.98,0,1.49-.49,1.49-1.49s-.51-1.47-1.49-1.47Z"/>
        <path d="M801.56,163.89h-3.32v-53.64c0-10.24-2.83-18.31-8.52-24.23-5.9-6.18-13.99-9.55-24.21-10.17l-.38-.18h-4.07c-1.73.11-3.4.36-5,.73-5.3,1-9.86,2.91-13.68,5.74-5.67,4.2-8.52,8.94-8.52,14.24,0,2.22.51,4.07,1.49,5.54.98,1.36,2.27,2.23,3.89,2.6.36.13.73.18,1.11.18.49,0,.98-.05,1.47-.18,1.24-.36,2.29-1.16,3.14-2.4,1.24-1.85,1.42-4.27.56-7.21-.49-4.09.18-7.47,2.03-10.19,1.85-2.71,4.87-4.49,9.06-5.36,1.47-.36,3.02-.54,4.61-.54h.74c7.28,0,12.77,2.58,16.46,7.76,3.71,5.18,5.61,12.9,5.74,23.12v5.36h-22.94c-7.27,0-13.8,1.4-19.6,4.16-5.79,2.78-10.04,6.94-12.77,12.5l-.18.36-.18.38v.18l-.18.18v.18l-.18.36-.18.2v.36l-.2.18v.56l-.18.18v.18l-.18.18v.56l-.18.18v.56l-.18.18v.54l-.18.2v.91l-.2.38v.93l-.18.18v1.85c0,5.79,1.85,10.9,5.56,15.35.11.24.24.36.36.36l.36.38c0,.11.07.24.18.36l.38.36c.13,0,.24.07.36.18l.38.38.18.36.36.38c5.3,4.43,11.99,6.92,20.07,7.48,8.06.56,15.13-1.07,21.18-4.9,3.45-2.22,6.23-5.05,8.32-8.5v11.46c0,.98.56,1.47,1.67,1.47h15.71c1,0,1.49-.49,1.49-1.47s-.49-1.47-1.49-1.47ZM784.18,147.23c-1.98,5.43-5.3,9.63-9.99,12.59-1.36.85-2.78,1.6-4.25,2.22-12.21,2.47-21.02,0-26.45-7.41-2.34-3.2-3.71-6.9-4.07-11.1-.36-4.05.18-8.01,1.67-11.82,1.6-4.07,4.12-7.37,7.57-9.9,3.45-2.52,7.65-3.8,12.57-3.8h22.94v29.23Z"/>
        <path d="M879.99,76.21h-9.81c-1,0-1.49.49-1.49,1.49s.49,1.47,1.49,1.47h3.32l-26.45,67.88-28.48-67.88h1.47c1,0,1.49-.49,1.49-1.47s-.49-1.49-1.49-1.49h-19.24c-.98,0-1.47.49-1.47,1.49s.49,1.47,1.47,1.47h2.78l36.44,87.11c0,.25.13.44.36.55v.2h.38v.18h1.11v-.18h.36v-.2h.2v-.18h.18v-.36h.18l2.03-5.36,3.51-9.26.2-.18,28.1-72.31h3.34c.98,0,1.47-.49,1.47-1.47s-.49-1.49-1.47-1.49Z"/>
        <path d="M991.88,164.43h-3.32v-55.85c-.62,1.36-1.62,3.71-2.96,7.03-4.58,11.46-8.26,19.67-11.1,24.59v24.23h-3.32c-1,0-1.49.49-1.49,1.49s.49,1.47,1.49,1.47h20.71c.98,0,1.47-.49,1.47-1.47s-.49-1.49-1.47-1.49ZM1046.81,164.43h-3.32v-54.93h-.18v-2.03l-.2-.56v-.73c-.85-6.67-3.14-12.33-6.83-17.02l-.18-.38-.2-.18-.18-.18v-.18c-.13-.13-.31-.25-.55-.36l-.2-.38-.18-.18v-.18l-.18-.18-.36-.2v-.18l-.2-.18h-.18l-.18-.18v-.18l-.36-.18-.18-.2v-.18l-.2-.18h-.18l-.18-.18v-.18h-.18v-.2h-.18l-.18-.18-.2-.18-.18-.18-.36-.18-.18-.18-.2-.2-.36-.18-.18-.18c-.25-.24-.44-.36-.56-.36-3.81-2.72-8.05-4.36-12.66-4.9-4.63-.56-9.1.04-13.41,1.76-6.67,2.71-11.72,7.7-15.17,14.97v-17.38c0-.49-.2-.85-.56-1.11-.74-.74-1.42-.74-2.03,0-1.98,2.11-4.38,4.01-7.21,5.74-1.85,1.24-5,2.89-9.43,5-.38.13-.62.36-.74.73-.36,1-.07,1.67.93,2.03,2.09.74,3.49,1.85,4.16,3.34.67,1.47,1.02,4.25,1.02,8.32v26.45c-1.6,3.45-3.14,6.5-4.63,9.15-1.47,2.65-3.16,5.34-5.09,8.05-1.91,2.71-4,5.09-6.28,7.12s-4.78,3.89-7.48,5.54c-2.72,1.67-5.79,3.03-9.25,4.07-3.47,1.05-7.23,1.71-11.28,1.94-6.92.62-12.22.13-15.91-1.47-2.72-1.11-5.18-2.71-7.39-4.81-2.23-2.09-4.14-4.47-5.74-7.12-1.6-2.65-2.96-5.63-4.07-8.97-1.11-3.58-1.98-7.45-2.6-11.64h46.99v.18c1.11,0,2.14-.13,3.14-.36,2.71-.38,5.1-1.31,7.21-2.78,1.96-1.36,3.63-3.14,5-5.36,2.96-5.07,3.81-11.48,2.58-19.24v-.56l-.18-.36v-.38l-.18-.36v-.36l-.18-.38v-.54l-.18-.18v-.38h-.2v-.36c-.11-.38-.24-.74-.36-1.11l-.18-.38v-.36h-.18v-.36l-.2-.2v-.18c-.24-.62-.49-1.16-.73-1.65-.13-.25-.25-.44-.38-.56l-.18-.36-.18-.2v-.18l-.18-.18-.18-.36-.18-.38c-.13-.24-.25-.42-.38-.54l-.18-.38-.18-.18-.18-.36-.2-.36-.36-.2-.18-.36-.18-.18-.2-.38-.18-.18-.36-.36-.18-.18-.18-.38-.2-.18h-.18l-.18-.18v-.18l-.18-.18-.36-.2-.2-.36-.18-.18-.36-.18-.18-.38-.38-.18-.54-.54-.2-.2-.36-.18-.18-.18v-.18l-.36-.18-.2-.18-.36-.2-.18-.18-.36-.18-.38-.36-.18-.2c-6.9-4.67-15.35-6.96-25.34-6.83h-2.22l-.38.18h-1.83l-.38.18h-1.11v.18h-.55c-.38,0-.69.07-.93.2h-.56l-.36.18h-.56l-.36.18h-.56v.18h-.18c-.25,0-.49.05-.74.18h-.54l-.18.18h-.18l-.56.2-.36.18h-.2l-.36.18h-.56l-.36.18-.54.18-.38.2-.54.18-.38.18-.55.18-.38.18-.55.18-.38.2-.55.18v.18l-.36.18-.56.18-.36.18-.38.2-.54.36-.38.18-.36.18-.18.2-.38.18-.36.18-.36.36h-.18l-.38.18-.36.38-.38.18-.55.36-.38.38-.36.18-.36.36-.38.38-.55.36-.36.18-.75.74-.38.36-.36.38-.36.36-.38.36c-7.39,7.41-11.64,17.33-12.75,29.79-.75,9.37.84,18.22,4.7,26.54,3.89,8.32,9.77,14.51,17.67,18.58,7.03,3.58,16.33,5,27.92,4.25,3.58-.24,6.94-.8,10.08-1.65,3.14-.87,5.98-1.78,8.52-2.78,2.52-.98,5-2.43,7.39-4.34,2.4-1.91,4.43-3.63,6.1-5.18,1.67-1.54,3.42-3.74,5.27-6.58,1.85-2.83,3.34-5.14,4.45-6.94,1.11-1.78,2.42-4.4,3.96-7.85,1.54-3.45,2.72-6.18,3.52-8.14.8-1.98,2-4.87,3.6-8.7,2.85-7.27,5.12-12.7,6.85-16.27v-.36h.18c2.96-7.65,7.77-12.82,14.44-15.55,1.83-.73,3.81-1.29,5.9-1.65h.93c5.3,0,9.45,2.16,12.41,6.47,3.2,4.43,5,10.92,5.36,19.42.13,1.11.18,2.34.18,3.71v54h-3.51c-1,0-1.49.49-1.49,1.49s.49,1.47,1.49,1.47h20.71c.98,0,1.49-.49,1.49-1.47s-.51-1.49-1.49-1.49ZM894.6,121.89c-.13-7.03.8-13.62,2.78-19.78,2.09-6.67,5.23-12.12,9.43-16.37,4.2-4.27,9.3-6.58,15.35-6.94,5.43,0,10.08,1.33,13.97,3.98,3.89,2.65,6.81,6.12,8.79,10.44,1.6,3.32,2.52,6.85,2.76,10.54.25,3.71-.18,7.21-1.29,10.55-2.47,7.65-7.52,11.77-15.17,12.39h-36.44c-.13-1.6-.18-3.22-.18-4.81Z"/>
        <path d="M1138.92,164.25h-3.52v-86.75c0-.49-.13-.85-.36-1.11-.74-.73-1.47-.73-2.22,0-1.85,2.11-4.2,4.01-7.03,5.74-1.98,1.24-5.18,2.91-9.63,5-.24.13-.49.36-.73.74-.25.98.05,1.65.93,2.03,2.22.73,3.63,1.83,4.25,3.32.62,1.47.93,4.25.93,8.32v32.93c-.13,7.14-2.11,13.24-5.92,18.31-3.96,5.3-9.32,8.68-16.09,10.17h-2.6c-6.16,0-10.97-1.98-14.42-5.92-3.69-4.07-5.85-10.43-6.47-19.05-.25-1.98-.38-4.12-.38-6.47v-53.82c0-.51-.11-.87-.36-1.11-.74-.74-1.47-.74-2.22,0-1.85,2.09-4.2,4-7.03,5.72-1.98,1.11-5.12,2.78-9.43,5-.38.13-.62.36-.74.74-.36.98-.13,1.65.74,2.03,2.22.73,3.63,1.85,4.25,3.32.62,1.49.93,4.25.93,8.32v27.94c0,3.45.31,6.78.93,9.99,1.85,8.63,5.79,15.35,11.82,20.16l.2.18.55.54.36.18.2.2.36.18.18.18.38.18.18.18.36.2.18.18.38.18h.18l.36.18.18.18.38.18.18.2.36.18.38.18h.18l.36.18.18.18.38.2h.18l.36.18.38.18h.18l.36.18h.38l.18.18.36.18h.18l.38.2h.36l.18.18h.38l.36.18h.18l.38.18h.36l.18.18h.74l.18.2h.74l.18.18h1.11l.18.18h1.29l.38.18h5.18l.18-.18h1.47v-.18h1.13l.18-.18h.93c7.39-1.62,13.31-5.38,17.75-11.3,1.36-1.83,2.52-3.81,3.52-5.9v17c0,1,.49,1.49,1.47,1.49h15.91c.98,0,1.47-.49,1.47-1.49s-.49-1.47-1.47-1.47Z"/>
        <path d="M1221.31,127.36c2.78-1.8,4.87-4.23,6.28-7.32,1.42-3.07,2.2-6.65,2.33-10.72.24-10.12-3.18-18.16-10.28-24.14-7.08-5.98-15.93-9.03-26.54-9.15-10.1,0-18.76,2.62-25.97,7.87-7.21,5.23-12.24,12.48-15.08,21.72-2.96,9.5-3.4,19-1.29,28.48,2.33,10.61,7.32,18.87,14.97,24.79,7.65,5.9,16.66,8.74,27.01,8.5,7.27-.24,13.8-1.96,19.6-5.18,6.05-3.32,10.37-7.77,12.95-13.31.49-.87.27-1.54-.65-2.03-.91-.49-1.56-.25-1.93.73-2.47,4.94-6.43,8.95-11.84,12.02-5.43,3.09-11.53,4.69-18.31,4.81-6.18-.24-11.41-2.43-15.73-6.56-4.3-4.14-7.57-9.54-9.79-16.18-1.13-3.71-1.98-7.59-2.6-11.66h46.97c3.83,0,7.12-.89,9.9-2.67ZM1164.26,127.07c-.13-1.6-.18-3.25-.18-5-.13-6.9.8-13.42,2.76-19.6,2.11-6.67,5.25-12.12,9.45-16.37,4.18-4.25,9.3-6.58,15.35-6.94,5.41,0,10.08,1.33,13.97,3.98,3.87,2.65,6.81,6.14,8.77,10.44,1.6,3.34,2.52,6.85,2.78,10.55.25,3.69-.18,7.21-1.29,10.54-2.47,7.52-7.52,11.66-15.17,12.39h-36.44Z"/>
        <path d="M665.4,77.45c-25.23,0-45.68,20.45-45.68,45.68s20.45,45.68,45.68,45.68,45.68-20.45,45.68-45.68-20.45-45.68-45.68-45.68ZM686.64,102.68c-2.42,0-4.38-1.96-4.38-4.38s1.96-4.4,4.38-4.4,4.4,1.96,4.4,4.4-1.96,4.38-4.4,4.38Z"/>
      </g>
    </g>
  </g>
</svg>